<svg xmlns="http://www.w3.org/2000/svg" id="svg0.04397346289707138" viewBox="0 0 1024 1024"><path d="M0 0 C337.92 0 675.84 0 1024 0 C1024 337.92 1024 675.84 1024 1024 C686.08 1024 348.16 1024 0 1024 C0 686.08 0 348.16 0 0 Z " transform="translate(0,0)" style="fill: #0F0E12;"/><path d="M0 0 C0 10.89 0 21.78 0 33 C4.51550537 32.98952637 9.03101074 32.97905273 13.68334961 32.96826172 C28.64696019 32.93503718 43.61057227 32.91289434 58.57421017 32.89637566 C67.6415337 32.88609827 76.70882209 32.87210627 85.77612305 32.84912109 C93.68657776 32.82907817 101.597007 32.81625791 109.5074864 32.81182301 C113.68929264 32.80923394 117.87102605 32.80322386 122.05280876 32.78853989 C126.00328248 32.77478289 129.95365461 32.77081319 133.90415001 32.77378464 C135.34025376 32.77324245 136.77636156 32.76937437 138.21244431 32.76158905 C173.15314691 32.5817485 206.48301987 42.18452115 237 59 C237.5986084 59.32758301 238.1972168 59.65516602 238.81396484 59.99267578 C257.14212916 70.16080551 273.26029707 83.16470885 288 98 C288.56831543 98.57105469 289.13663086 99.14210938 289.72216797 99.73046875 C311.83950603 122.21498266 328.30443884 151.10313949 338 181 C338.34901367 182.03785645 338.34901367 182.03785645 338.70507812 183.09667969 C342.59631033 194.74266098 344.70372227 206.58978491 346.59863281 218.7043457 C346.97164913 220.83784477 347.46528165 222.90251519 348 225 C351.19923483 248.46105545 348.9186155 272.25779494 344.625 295.375 C344.3297644 296.97988281 344.3297644 296.97988281 344.02856445 298.6171875 C342.77480207 305.05685379 341.08383322 311.1599629 338.88647461 317.34277344 C338.05182418 319.84465591 337.44810165 322.28999064 336.9375 324.875 C336.1687297 328.62444113 334.83631902 331.62117301 333 335 C332.27927288 336.6906199 331.55884829 338.38137057 330.84106445 340.07324219 C321.34609041 361.82486342 308.71749873 381.28257588 293 399 C292.50709473 399.55606934 292.01418945 400.11213867 291.50634766 400.68505859 C276.57837796 417.41840513 259.60904785 431.1086926 240 442 C239.26378418 442.40992188 238.52756836 442.81984375 237.76904297 443.2421875 C220.09557201 452.99714534 202.52011401 459.88104596 183 465 C181.22302734 465.47953125 181.22302734 465.47953125 179.41015625 465.96875 C159.75007985 470.92715514 139.58891068 470.27351685 119.48168707 470.20278788 C115.26970927 470.19014031 111.0577275 470.18909912 106.84573364 470.18673706 C98.89896314 470.18056296 90.95224879 470.16420827 83.00550282 470.14403808 C73.9460154 470.12155107 64.88652505 470.11065372 55.82701659 470.10064721 C37.21797293 470.07983759 18.60900606 470.04321337 0 470 C0 480.89 0 491.78 0 503 C-3.10272791 501.44863604 -5.44481509 500.03684135 -8.16796875 497.98046875 C-9.37114746 497.07518433 -9.37114746 497.07518433 -10.59863281 496.15161133 C-11.45295898 495.50345459 -12.30728516 494.85529785 -13.1875 494.1875 C-14.07663086 493.51678467 -14.96576172 492.84606934 -15.88183594 492.1550293 C-22.21977298 487.3676838 -28.53060879 482.54507819 -34.83569336 477.71459961 C-39.62863834 474.04402095 -44.42873182 470.38332716 -49.25 466.75 C-49.90258789 466.25814209 -50.55517578 465.76628418 -51.22753906 465.25952148 C-56.6043659 461.23635334 -62.12141459 457.4511015 -67.71875 453.7421875 C-68.4715625 453.16726563 -69.224375 452.59234375 -70 452 C-70 451.34 -70 450.68 -70 450 C-68.53808594 448.72241211 -68.53808594 448.72241211 -66.484375 447.27734375 C-65.73414063 446.74367188 -64.98390625 446.21 -64.2109375 445.66015625 C-63.39882813 445.09167969 -62.58671875 444.52320313 -61.75 443.9375 C-60.07751006 442.74956322 -58.40563506 441.56076018 -56.734375 440.37109375 C-55.91646484 439.79085449 -55.09855469 439.21061523 -54.25585938 438.61279297 C-51.46780534 436.61951538 -48.73069465 434.57116247 -46 432.5 C-41.07464777 428.77695289 -36.07724141 425.16341424 -31.0625 421.5625 C-25.57985303 417.62347752 -20.14759969 413.63698963 -14.8125 409.5 C-2.55842834 400 -2.55842834 400 0 400 C0 411.55 0 423.1 0 435 C18.84791051 434.95948038 37.69554321 434.90236636 56.54329491 434.81609726 C65.29758322 434.77654077 74.0517847 434.74403101 82.80615234 434.72900391 C90.44980943 434.71586451 98.09327352 434.68859403 105.73682177 434.64538693 C109.77194456 434.62304355 113.80683182 434.60707259 117.84202194 434.60811615 C142.86873377 434.60748551 167.74076863 433.86636378 191.1953125 424.1484375 C193.24051334 423.31098758 195.30006162 422.50832936 197.3671875 421.7265625 C213.41292816 415.58643764 227.47751185 407.58333911 241 397 C242.39412109 395.94232422 242.39412109 395.94232422 243.81640625 394.86328125 C258.63732853 383.26717962 270.62075873 369.62282354 281 354 C281.39654785 353.4112207 281.7930957 352.82244141 282.20166016 352.21582031 C287.76587019 343.8855725 292.0596297 335.04487089 296.13330078 325.921875 C296.86433031 324.30084277 297.62955509 322.6952953 298.40234375 321.09375 C317.28725393 280.06583012 315.31609809 227.37986484 300.17529297 185.73144531 C291.92540193 163.77352376 279.90610284 144.22717558 264 127 C263.46391113 126.41863281 262.92782227 125.83726562 262.37548828 125.23828125 C242.23724485 103.67816479 216.25772621 86.78418602 188 78 C186.94554687 77.649375 185.89109375 77.29875 184.8046875 76.9375 C168.27949487 71.64943836 152.34769818 69.86627342 135.09521484 69.79467773 C133.61592345 69.78507955 132.13663468 69.7750684 130.65734863 69.76467896 C126.67048162 69.73783373 122.68360301 69.71671491 118.69669676 69.69667697 C114.51934459 69.67469044 110.34202731 69.6473642 106.16470337 69.62062073 C98.26729485 69.57086403 90.3698668 69.52586262 82.47242033 69.48259836 C73.47596412 69.43307976 64.47954294 69.37821623 55.48312068 69.32291877 C36.9887783 69.20936031 18.49440345 69.10317057 0 69 C0 80.55 0 92.1 0 104 C-0.66 104 -1.32 104 -2 104 C-2 103.34 -2 102.68 -2 102 C-2.72574219 101.74992187 -3.45148438 101.49984375 -4.19921875 101.2421875 C-7.25300482 99.88778866 -9.28259869 98.30031671 -11.8125 96.125 C-16.4176633 92.26460705 -21.1195387 88.59107313 -25.9375 85 C-26.96846802 84.23079224 -26.96846802 84.23079224 -28.02026367 83.44604492 C-30.01216036 81.96220572 -32.00576038 80.48068832 -34 79 C-41.05176043 73.75638327 -48.02024285 68.43183507 -54.89941406 62.96484375 C-59.2315537 59.54383836 -63.69066038 56.37382621 -68.3046875 53.33984375 C-68.86414063 52.89769531 -69.42359375 52.45554687 -70 52 C-70 51.34 -70 50.68 -70 50 C-68.35443434 48.96564444 -66.68122177 47.9753313 -65 47 C-62.56210552 45.26420152 -60.1920143 43.43971427 -57.8125 41.625 C-51.95232512 37.18893255 -46.03740698 32.84262348 -40.0625 28.5625 C-34.00937209 24.21823724 -28.0341505 19.78823822 -22.125 15.25 C-21.42568359 14.71294434 -20.72636719 14.17588867 -20.00585938 13.62255859 C-17.37886484 11.60260608 -14.7535169 9.58052059 -12.12841797 7.55810547 C-10.44335291 6.2631401 -8.7536708 4.97447526 -7.0625 3.6875 C-6.12535156 2.96949219 -5.18820312 2.25148438 -4.22265625 1.51171875 C-2 0 -2 0 0 0 Z " transform="translate(396,266)" style="fill: #E0CBBA;"/><path d="M0 0 C132.52652259 0 132.52652259 0 153 17 C153.98419922 17.81404297 153.98419922 17.81404297 154.98828125 18.64453125 C162.93418592 25.88569936 169.18275121 36.99096184 170.28320312 47.77539062 C170.40187794 50.79455841 170.41645107 53.79133609 170.375 56.8125 C170.36484863 57.87549316 170.35469727 58.93848633 170.34423828 60.03369141 C170.01391319 76.71638888 164.92155912 87.43127532 153.5390625 99.5703125 C145.77491961 107 145.77491961 107 141 107 C141 107.66 141 108.32 141 109 C142.02738281 109.10570312 143.05476562 109.21140625 144.11328125 109.3203125 C156.67176837 111.51647005 167.25928888 121.01634593 175.12890625 130.58984375 C184.31069092 143.77750424 187.01580346 159.33950665 184.69824219 175.04492188 C181.76121829 191.02043194 173.38218624 204.89210823 160.4375 214.6875 C148.80599171 222.29202551 136.66606259 226.08350794 123 228 C122.00632919 228.17313217 121.01265839 228.34626434 119.98887634 228.52464294 C114.86346553 229.25127264 109.72316335 229.13103653 104.55688477 229.11352539 C102.83089884 229.11370619 102.83089884 229.11370619 101.07004452 229.11389065 C97.36047849 229.1131467 93.65096325 229.10554204 89.94140625 229.09765625 C87.64514185 229.09618523 85.34887711 229.0951655 83.0526123 229.09460449 C74.55590308 229.08937018 66.05920103 229.07540893 57.5625 229.0625 C29.0690625 229.0315625 29.0690625 229.0315625 0 229 C0 153.43 0 77.86 0 0 Z " transform="translate(304,402)" style="fill: #EACFBC;"/><path d="M0 0 C10.1197866 -0.07005933 20.23951382 -0.12309139 30.35949516 -0.15543652 C35.06055247 -0.17097443 39.76144171 -0.19199048 44.46240234 -0.22631836 C49.01416762 -0.259342 53.56577308 -0.2769418 58.11764908 -0.28463173 C59.8388533 -0.29009925 61.56005056 -0.30077096 63.28118515 -0.31719017 C78.09028958 -0.45261661 92.97859828 0.65150614 107.0625 5.625 C107.79235107 5.87733398 108.52220215 6.12966797 109.27416992 6.38964844 C138.11536083 16.81201026 161.00472765 37.86134612 174.3125 65.375 C186.03571897 90.64711378 186.98008538 118.21978133 180 145 C179.73445312 146.14984375 179.46890625 147.2996875 179.1953125 148.484375 C172.96616458 172.33311276 153.82361181 196.15724382 133 209 C131.98808594 209.64453125 130.97617187 210.2890625 129.93359375 210.953125 C113.5317777 220.91204923 93.71325489 228.14651838 74.41235352 228.11352539 C73.68956711 228.11367142 72.9667807 228.11381744 72.22209167 228.1139679 C69.85766489 228.11327699 67.4933191 228.10552352 65.12890625 228.09765625 C63.47981306 228.09578914 61.83071931 228.09436662 60.18162537 228.09336853 C55.85965419 228.0895664 51.53771708 228.07975597 47.21575928 228.06866455 C42.79814108 228.05840071 38.38051733 228.05386029 33.96289062 228.04882812 C25.30857819 228.03813147 16.65429334 228.02108296 8 228 C10.52196 225.45677007 13.06899788 223.05208325 15.8125 220.75 C27.20379981 210.70379832 33.93955033 198.22050415 39 184 C39.33 184 39.66 184 40 184 C40 185.65 40 187.3 40 189 C84.99527574 188.78119509 84.99527574 188.78119509 122.55859375 165.69921875 C137.95356148 148.67854243 142.99406289 128.15348145 142.20629883 105.6706543 C140.63628585 85.34595379 130.87404232 68.23468909 115.625 55.03125 C93.64296775 38.02134409 68.15045388 39.69616548 41 39 C41 77.61 41 116.22 41 156 C39.17766114 152.35532228 38.63202307 150.29666822 38.125 146.375 C35.32425735 128.31351784 24.08744496 114.82385354 10 104 C11.3339437 101.15593135 12.87867133 98.76522671 14.75 96.25 C24.83422351 81.27196214 28.42671563 61.45461717 25.25 43.8125 C21.02037929 26.07159092 12.90651609 12.81704516 0 0 Z " transform="translate(468,403)" style="fill: #EBE1D0;"/><path d="M0 0 C17.23787495 -0.12032643 17.23787495 -0.12032643 24.65234375 -0.14648438 C29.68841169 -0.16433638 34.72431418 -0.18532973 39.76025391 -0.22631836 C43.82570444 -0.25919645 47.89097725 -0.27691219 51.9565506 -0.28463173 C53.49850507 -0.29012469 55.04045113 -0.30084923 56.5823288 -0.31719017 C70.23934172 -0.4560168 84.86152121 0.67813856 95.546875 10.27734375 C101.17188226 16.94569913 103.95282138 24.42537819 103.453125 33.11328125 C102.23031166 40.90344553 99.05378621 47.83275152 93 53 C80.54514647 61.95060661 65.66312882 62.46132426 50.87890625 62.29296875 C49.39819271 62.28735306 47.91747349 62.28309234 46.43675232 62.28010559 C42.59479576 62.26881162 38.75319554 62.23948385 34.91137695 62.20599365 C30.2722281 62.16946777 25.63295812 62.15605778 20.99370575 62.13863373 C13.99555824 62.10983204 6.99818798 62.05223972 0 62 C0 41.54 0 21.08 0 0 Z " transform="translate(345,532)" style="fill: #121014;"/><path d="M0 0 C9.4875 -0.061875 18.975 -0.12375 28.75 -0.1875 C33.2064502 -0.22846802 33.2064502 -0.22846802 37.75292969 -0.27026367 C40.14257401 -0.27903634 42.53222286 -0.28667843 44.921875 -0.29296875 C46.13439941 -0.30831665 47.34692383 -0.32366455 48.59619141 -0.33947754 C60.3358367 -0.34303501 72.47941516 1.30222445 81.54296875 9.45703125 C87.33570946 15.59143495 88.70402632 21.75189415 88.59814453 30.03955078 C88.27702006 36.31257666 86.47479115 40.85893472 83 46 C82.46375 46.928125 81.9275 47.85625 81.375 48.8125 C71.56153725 57.85121569 57.78622305 58.30007056 45.21484375 58.1953125 C43.48868835 58.19229126 43.48868835 58.19229126 41.72766113 58.18920898 C37.46423304 58.17881278 33.20086215 58.15089063 28.9375 58.125 C19.388125 58.08375 9.83875 58.0425 0 58 C0 38.86 0 19.72 0 0 Z " transform="translate(345,437)" style="fill: #131014;"/><path d="M0 0 C0 10.89 0 21.78 0 33 C50.16 33 100.32 33 152 33 C152 33.33 152 33.66 152 34 C132.06859045 34.15375051 112.13714634 34.30178775 92.20564365 34.4429636 C82.9517705 34.50864348 73.69791829 34.57621555 64.4440918 34.64819336 C56.38146255 34.71090109 48.31881664 34.77010832 40.25613064 34.82505554 C35.98429777 34.85429184 31.71249437 34.88531926 27.44070625 34.92053413 C23.42466864 34.95358551 19.40862575 34.98197672 15.39252853 35.00670624 C13.91422058 35.01664659 12.43592322 35.02832786 10.95764351 35.04183006 C8.94804067 35.05993163 6.93838058 35.07131331 4.9287262 35.08229065 C3.23769697 35.09473485 3.23769697 35.09473485 1.51250553 35.10743046 C-1 35 -1 35 -2 34 C-2.90712098 27.61209213 -3.12748379 21.38089307 -3.0625 14.9375 C-3.05798828 14.07189453 -3.05347656 13.20628906 -3.04882812 12.31445312 C-3.03719913 10.20960461 -3.01927073 8.10479242 -3 6 C-6.39432859 7.64689568 -9.63363084 9.27900424 -12.6875 11.5 C-13.24824219 11.9021875 -13.80898438 12.304375 -14.38671875 12.71875 C-16.03767415 13.97995094 -16.03767415 13.97995094 -17.51953125 15.51953125 C-20.60274062 18.60274062 -23.58413748 21 -28 21 C-28.20625 21.5775 -28.4125 22.155 -28.625 22.75 C-30.52305557 25.85590911 -32.91554925 27.10187646 -36 29 C-40.06082628 31.59201678 -43.65813057 34.38225185 -47.265625 37.55078125 C-49.69976149 39.58471061 -52.35392346 41.25599501 -55 43 C-55.53625 43.53625 -56.0725 44.0725 -56.625 44.625 C-58.27238434 46.27238434 -59.88526565 47.03875711 -62 48 C-62.7425 48.37125 -63.485 48.7425 -64.25 49.125 C-64.8275 49.41375 -65.405 49.7025 -66 50 C-66 50.66 -66 51.32 -66 52 C-65.236875 52.268125 -64.47375 52.53625 -63.6875 52.8125 C-61.01927029 53.99148522 -59.93553449 54.90317097 -58 57 C-56.34614767 58.34919532 -54.678298 59.68133728 -53 61 C-51.700625 62.051875 -51.700625 62.051875 -50.375 63.125 C-47.94796509 65.09261258 -47.94796509 65.09261258 -45 67 C-45 67.66 -45 68.32 -45 69 C-44.34 69 -43.68 69 -43 69 C-42.67 69.99 -42.34 70.98 -42 72 C-46.03419682 70.28099495 -49.24458028 67.54276852 -52.625 64.8125 C-57.70700747 60.74649376 -62.86190847 56.91877723 -68.3046875 53.33984375 C-68.86414063 52.89769531 -69.42359375 52.45554687 -70 52 C-70 51.34 -70 50.68 -70 50 C-68.35443434 48.96564444 -66.68122177 47.9753313 -65 47 C-62.56210552 45.26420152 -60.1920143 43.43971427 -57.8125 41.625 C-51.95232512 37.18893255 -46.03740698 32.84262348 -40.0625 28.5625 C-34.00937209 24.21823724 -28.0341505 19.78823822 -22.125 15.25 C-21.42568359 14.71294434 -20.72636719 14.17588867 -20.00585938 13.62255859 C-17.37886484 11.60260608 -14.7535169 9.58052059 -12.12841797 7.55810547 C-10.44335291 6.2631401 -8.7536708 4.97447526 -7.0625 3.6875 C-6.12535156 2.96949219 -5.18820312 2.25148438 -4.22265625 1.51171875 C-2 0 -2 0 0 0 Z " transform="translate(396,266)" style="fill: #C0918D;"/><path d="M0 0 C-2 2 -2 2 -4.61993599 2.24609566 C-5.73899267 2.24425207 -6.85804935 2.24240849 -8.01101685 2.24050903 C-9.29271759 2.24325836 -10.57441833 2.24600769 -11.8949585 2.24884033 C-13.32336518 2.24176155 -14.75177094 2.23449193 -16.18017578 2.22705078 C-17.67798861 2.22648689 -19.17580199 2.22680279 -20.6736145 2.22793579 C-24.74779441 2.22851118 -28.82185729 2.21672682 -32.89600992 2.20278788 C-37.15079059 2.19031149 -41.40557374 2.18911246 -45.66036987 2.18673706 C-53.72100339 2.18051318 -61.78158285 2.16409011 -69.84219253 2.14403808 C-79.01738928 2.12170729 -88.19258857 2.11069276 -97.36780572 2.10064721 C-116.24524071 2.07972464 -135.12260158 2.0430371 -154 2 C-154 12.89 -154 23.78 -154 35 C-154.99 34.67 -155.98 34.34 -157 34 C-156.67 22.78 -156.34 11.56 -156 0 C-103.96954095 -0.95845582 -52.03009292 -1.38003068 0 0 Z " transform="translate(550,734)" style="fill: #CBB9BA;"/><path d="M0 0 C0.99 0.33 1.98 0.66 3 1 C0.52563181 6.15493372 -2.17017639 11.15705827 -5 16.125 C-5.33193359 16.71039551 -5.66386719 17.29579102 -6.00585938 17.89892578 C-9.07829493 23.25757934 -12.43298662 28.34693368 -16.1875 33.25 C-17.6456092 35.1547705 -18.92715365 36.85430731 -20 39 C-20.99 39.33 -21.98 39.66 -23 40 C-24.14129006 41.79374257 -24.14129006 41.79374257 -25.125 44 C-30.62362448 54.34265081 -40.88283802 61.68515076 -50.11328125 68.578125 C-51.93204314 69.94878613 -53.65595653 71.38193408 -55.375 72.875 C-55.97828125 73.39320313 -56.5815625 73.91140625 -57.203125 74.4453125 C-58.34470397 75.43302648 -59.48081109 76.4271283 -60.609375 77.4296875 C-63.62161268 80.05375022 -66.28969128 81.5960994 -70 83 C-70.495 83.495 -70.99 83.99 -71.5 84.5 C-73.4346384 86.4346384 -75.44465967 87.10217772 -78 88 C-78.33 86.68 -78.66 85.36 -79 84 C-78.07960938 83.47792969 -77.15921875 82.95585938 -76.2109375 82.41796875 C-62.89925456 74.73126516 -51.1725789 65.55676747 -40 55 C-39.06800781 54.1440625 -38.13601563 53.288125 -37.17578125 52.40625 C-22.42214089 38.53306098 -11.55878567 20.82746508 -2.12890625 3.046875 C-1 1 -1 1 0 0 Z " transform="translate(692,595)" style="fill: #D8D1D9;"/><path d="M0 0 C0.33 1.32 0.66 2.64 1 4 C2.06899536 3.98747192 3.13799072 3.97494385 4.23937988 3.96203613 C14.47182824 3.84236382 24.70429813 3.72470045 34.93679047 3.60884857 C40.19338628 3.54927322 45.44997304 3.48906609 50.70654297 3.42724609 C75.13866082 3.14039446 99.56601667 2.91121869 124 3 C119.83813027 7.16186973 112.39829246 6.11658886 106.83100891 6.12442017 C105.78084091 6.12082489 104.73067291 6.11722961 103.64868164 6.11352539 C102.52599884 6.11367142 101.40331604 6.11381744 100.24661255 6.1139679 C96.55110718 6.11327354 92.85565277 6.10550347 89.16015625 6.09765625 C86.59183276 6.09579038 84.02350891 6.09436727 81.45518494 6.09336853 C75.39573647 6.0899459 69.3363089 6.08207154 63.27686828 6.07201904 C56.37478418 6.06081862 49.47269919 6.05533757 42.57060826 6.05032361 C28.38039577 6.03988781 14.19019853 6.02231291 0 6 C0 4.02 0 2.04 0 0 Z " transform="translate(305,625)" style="fill: #E2D4CD;"/><path d="M0 0 C-1.09544086 1.47745228 -1.09544086 1.47745228 -3 3 C-5.88354015 3.36914349 -5.88354015 3.36914349 -9.47294617 3.36076355 C-10.13296137 3.36332682 -10.79297658 3.3658901 -11.47299224 3.36853105 C-13.68886619 3.37348013 -15.90406167 3.35695839 -18.11987305 3.34057617 C-19.70650211 3.33973014 -21.29313236 3.34020458 -22.87976074 3.34190369 C-27.19153152 3.34276599 -31.50305297 3.32510223 -35.81476569 3.30418181 C-40.31910937 3.2854542 -44.82345848 3.28366767 -49.32783508 3.28010559 C-57.85949695 3.27077359 -66.39104377 3.24614422 -74.92265493 3.21605712 C-84.63473631 3.182549 -94.34682314 3.16603614 -104.05894792 3.15097082 C-124.03936287 3.11959565 -144.0196742 3.06681274 -164 3 C-164 2.67 -164 2.34 -164 2 C-163.26984586 1.99668985 -162.53969172 1.99337971 -161.78741169 1.98996925 C-143.9741249 1.90854615 -126.16092272 1.81639141 -108.34775257 1.71247292 C-99.73323634 1.66247301 -91.11872903 1.61602927 -82.50415039 1.578125 C-74.99068176 1.54505642 -67.477285 1.50514456 -59.96389598 1.45720994 C-55.99016875 1.4320918 -52.0164883 1.41026827 -48.04270363 1.39665604 C-44.29245445 1.38370097 -40.54236691 1.36150616 -36.79220772 1.33261681 C-34.78013373 1.31940924 -32.76800445 1.31564573 -30.75588989 1.31230164 C-23.59596409 1.24729217 -16.7961498 0.67748985 -9.74828625 -0.61033058 C-6.21472094 -1.11134184 -3.45574781 -0.80366228 0 0 Z " transform="translate(559,700)" style="fill: #E1D2D2;"/><path d="M0 0 C0 0.66 0 1.32 0 2 C4.95 2 9.9 2 15 2 C15 2.33 15 2.66 15 3 C-33.84 3 -82.68 3 -133 3 C-133 2.67 -133 2.34 -133 2 C-131.71199493 1.98969254 -130.42398987 1.97938507 -129.09695435 1.96876526 C-116.88811914 1.87050387 -104.67932896 1.76772622 -92.4705677 1.66066074 C-86.1957265 1.60577467 -79.92088045 1.55241446 -73.64599609 1.50268555 C-67.57698907 1.45452968 -61.50803075 1.40217745 -55.4390831 1.34705925 C-53.13737088 1.32686491 -50.83564544 1.30811799 -48.53390884 1.29092598 C-37.31320689 1.20621631 -26.11886336 1.09554578 -14.91996956 0.3395853 C-9.9325542 0.00728611 -4.99559744 -0.03748651 0 0 Z " transform="translate(537,332)" style="fill: #ECD0CD;"/><path d="M0 0 C0.33 0 0.66 0 1 0 C1.33 16.17 1.66 32.34 2 49 C25.43 49.33 48.86 49.66 73 50 C73 50.33 73 50.66 73 51 C71.02 51.33 69.04 51.66 67 52 C67 52.33 67 52.66 67 53 C63.27084983 53.02912348 59.5417291 53.04684037 55.8125 53.0625 C54.22985352 53.07506836 54.22985352 53.07506836 52.61523438 53.08789062 C51.59365234 53.09111328 50.57207031 53.09433594 49.51953125 53.09765625 C48.58214111 53.10289307 47.64475098 53.10812988 46.67895508 53.11352539 C44 53 44 53 41.48413086 52.48413086 C38.78424119 51.95795089 36.47668912 51.99125393 33.734375 52.15625 C32.76242187 52.20910156 31.79046875 52.26195312 30.7890625 52.31640625 C29.78617187 52.37699219 28.78328125 52.43757812 27.75 52.5 C25.74506562 52.61928091 23.73986007 52.73411682 21.734375 52.84375 C20.40744629 52.92399414 20.40744629 52.92399414 19.05371094 53.00585938 C17 53 17 53 16 52 C13.49583065 51.78936893 11.00859919 51.62427923 8.5 51.5 C1.13513514 51.13513514 1.13513514 51.13513514 0 50 C-0.09326716 48.43452952 -0.11745582 46.86487228 -0.11352539 45.29663086 C-0.11344986 44.29566879 -0.11337433 43.29470673 -0.11329651 42.26341248 C-0.10813522 41.1748848 -0.10297394 40.08635712 -0.09765625 38.96484375 C-0.0962413 37.85645645 -0.09482635 36.74806915 -0.09336853 35.60609436 C-0.08775033 32.04986931 -0.07519475 28.49370617 -0.0625 24.9375 C-0.05748734 22.53320403 -0.05292403 20.12890708 -0.04882812 17.72460938 C-0.03777499 11.81638496 -0.02101917 5.9081969 0 0 Z " transform="translate(343,544)" style="fill: #EADCD4;"/><path d="M0 0 C0.33 0 0.66 0 1 0 C1 19.14 1 38.28 1 58 C19.81 58 38.62 58 58 58 C58 58.33 58 58.66 58 59 C50.6030417 59.20002134 43.20586938 59.38376156 35.80799294 59.54658794 C32.37303666 59.62270562 28.93840727 59.70447645 25.50390625 59.79907227 C21.55761269 59.90751837 17.61098372 59.99154711 13.6640625 60.07421875 C12.42757965 60.11157639 11.1910968 60.14893402 9.91714478 60.18742371 C8.77611298 60.20767105 7.63508118 60.2279184 6.45947266 60.2487793 C5.451315 60.27320602 4.44315735 60.29763275 3.40444946 60.32279968 C2.61098114 60.21627579 1.81751282 60.10975189 1 60 C-1.04518997 56.93221504 -1.26156386 56.1985671 -1.35058594 52.71899414 C-1.39007355 51.42603172 -1.39007355 51.42603172 -1.43035889 50.10694885 C-1.4481842 49.17575729 -1.46600952 48.24456573 -1.484375 47.28515625 C-1.5084845 46.31903915 -1.53259399 45.35292206 -1.55743408 44.35752869 C-1.60577148 42.30738946 -1.64915424 40.25712837 -1.68798828 38.20678711 C-1.74915443 35.1053742 -1.83243217 32.00512141 -1.91796875 28.90429688 C-2.15033299 19.06903375 -2.3663425 9.61941529 0 0 Z " transform="translate(344,437)" style="fill: #DEC2C1;"/><path d="M0 0 C0.33 0 0.66 0 1 0 C1 12.85210489 -5.78912597 24.85278903 -14.66015625 33.890625 C-21.84454028 40.36736519 -31.91694748 48 -42 48 C-42 47.34 -42 46.68 -42 46 C-40.7625 45.54625 -39.525 45.0925 -38.25 44.625 C-35.97509597 43.77843078 -33.84917585 42.92254976 -31.6875 41.8125 C-30 41 -30 41 -27 41 C-26.67 40.01 -26.34 39.02 -26 38 C-20.76744186 33 -20.76744186 33 -16 33 C-16 32.01 -16 31.02 -16 30 C-15.34 30 -14.68 30 -14 30 C-14 29.34 -14 28.68 -14 28 C-13.34 28 -12.68 28 -12 28 C-11.731875 27.29875 -11.46375 26.5975 -11.1875 25.875 C-9.93056354 22.83189068 -8.475284 19.9434582 -7 17 C-5.94800517 14.79656803 -4.90641626 12.58813941 -3.875 10.375 C-3.35679687 9.26898437 -2.83859375 8.16296875 -2.3046875 7.0234375 C-1.2779321 4.64407019 -0.50534316 2.52671581 0 0 Z " transform="translate(486,577)" style="fill: #E4D7D6;"/><path d="M0 0 C36.3 0 72.6 0 110 0 C110 0.33 110 0.66 110 1 C108.59630913 1.0154612 108.59630913 1.0154612 107.16426086 1.03123474 C98.29441869 1.12949194 89.42463855 1.23226926 80.55489826 1.33933926 C75.99617492 1.39422764 71.43744491 1.44758825 66.87866211 1.49731445 C62.46953132 1.54546688 58.06046765 1.59781906 53.65141869 1.65294075 C51.97915533 1.67313662 50.30687375 1.69188336 48.6345768 1.70907402 C39.96103462 1.79919423 31.36110762 2.00137899 22.7154541 2.78283691 C18.53732901 3.11697423 14.37598193 3.1093188 10.1875 3.0625 C9.38763672 3.05798828 8.58777344 3.05347656 7.76367188 3.04882812 C5.84241342 3.03732358 3.92119489 3.01940601 2 3 C1.34 4.32 0.68 5.64 0 7 C0 4.69 0 2.38 0 0 Z " transform="translate(305,402)" style="fill: #D7B2B1;"/><path d="M0 0 C0.99 0.33 1.98 0.66 3 1 C0.52563181 6.15493372 -2.17017639 11.15705827 -5 16.125 C-5.33193359 16.71039551 -5.66386719 17.29579102 -6.00585938 17.89892578 C-9.07829493 23.25757934 -12.43298662 28.34693368 -16.1875 33.25 C-17.6456092 35.1547705 -18.92715365 36.85430731 -20 39 C-21.485 39.495 -21.485 39.495 -23 40 C-23.66 40.99 -24.32 41.98 -25 43 C-25.66 42.34 -26.32 41.68 -27 41 C-26.52691406 40.44054687 -26.05382812 39.88109375 -25.56640625 39.3046875 C-16.56705821 28.39319728 -9.55574245 16.45577652 -2.75 4.10546875 C-1 1 -1 1 0 0 Z " transform="translate(692,595)" style="fill: #CFC9D3;"/><path d="M0 0 C1 2 1 2 0.3125 4.5 C-1.20289002 7.38645719 -2.08343377 7.76266887 -5 9 C-5.42667969 9.44988281 -5.85335937 9.89976562 -6.29296875 10.36328125 C-8.45025416 12.43170822 -10.74264657 13.65256823 -13.375 15.0625 C-14.31085937 15.56910156 -15.24671875 16.07570313 -16.2109375 16.59765625 C-18.77132393 17.88502142 -21.33468789 18.95384329 -24 20 C-24.59554687 20.34546875 -25.19109375 20.6909375 -25.8046875 21.046875 C-29.12041591 22.48644392 -32.56826527 22.81733817 -36.125 23.25 C-36.85332031 23.353125 -37.58164062 23.45625 -38.33203125 23.5625 C-40.21218029 23.79882188 -42.10726834 23.9084833 -44 24 C-44.66 23.34 -45.32 22.68 -46 22 C-44.92105469 21.82726562 -43.84210937 21.65453125 -42.73046875 21.4765625 C-26.74632575 18.6014704 -11.24567858 12.08994874 0 0 Z " transform="translate(590,569)" style="fill: #DBD5DD;"/><path d="M0 0 C0.33 0.66 0.66 1.32 1 2 C-1.64 2 -4.28 2 -7 2 C-7 13.55 -7 25.1 -7 37 C-7.66 37 -8.32 37 -9 37 C-9 36.34 -9 35.68 -9 35 C-9.763125 34.7525 -10.52625 34.505 -11.3125 34.25 C-14.2364045 32.89004442 -15.30004356 31.68414174 -17 29 C-14.36 29 -11.72 29 -9 29 C-9.0721875 28.33355469 -9.144375 27.66710937 -9.21875 26.98046875 C-10.09012333 18.32724752 -10.8534879 9.57238153 -9 1 C-5.92677456 0.08941469 -3.19902639 -0.08886184 0 0 Z " transform="translate(403,333)" style="fill: #D0A3A5;"/><path d="M0 0 C0.66 0 1.32 0 2 0 C0.52242377 8.45398043 -9.71763984 16.49337236 -16.11328125 21.73046875 C-18 23 -18 23 -20 23 C-19.67 21.68 -19.34 20.36 -19 19 C-18.34 19 -17.68 19 -17 19 C-16.67 18.01 -16.34 17.02 -16 16 C-15.34 16 -14.68 16 -14 16 C-13.67 15.01 -13.34 14.02 -13 13 C-11.2578125 11.31640625 -11.2578125 11.31640625 -9.125 9.5625 C-6.89360158 7.72221385 -5.0837276 6.1139737 -3.3671875 3.77734375 C-2.69042969 2.89755859 -2.69042969 2.89755859 -2 2 C-1.34 2 -0.68 2 0 2 C0 1.34 0 0.68 0 0 Z " transform="translate(625,585)" style="fill: #E8DFE8;"/><path d="M0 0 C11.52983398 1.8563239 20.11945952 9.94236872 28 18 C30 21 30 21 30 24 C29.01 23.67 28.02 23.34 27 23 C27 22.34 27 21.68 27 21 C26.34 21 25.68 21 25 21 C24.7525 20.236875 24.505 19.47375 24.25 18.6875 C22.87823242 15.73819971 21.6081283 14.82568981 19 13 C19 12.34 19 11.68 19 11 C17.35 11 15.7 11 14 11 C14 10.01 14 9.02 14 8 C13.44828125 7.87753906 12.8965625 7.75507812 12.328125 7.62890625 C9.70408745 6.92006389 7.2663047 5.96388744 4.75 4.9375 C3.85796875 4.57527344 2.9659375 4.21304688 2.046875 3.83984375 C1.03367187 3.42412109 1.03367187 3.42412109 0 3 C0 2.01 0 1.02 0 0 Z " transform="translate(449,512)" style="fill: #DDD0D1;"/><path d="M0 0 C1.06488647 -0.01812744 2.12977295 -0.03625488 3.22692871 -0.05493164 C4.63739471 -0.08677551 4.63739471 -0.08677551 6.07635498 -0.1192627 C8.72863142 0.09433743 10.32881915 0.73273584 12.5970459 2.08374023 C12.5970459 2.41374023 12.5970459 2.74374023 12.5970459 3.08374023 C-12.1529541 2.75374023 -36.9029541 2.42374023 -62.4029541 2.08374023 C-62.4029541 1.75374023 -62.4029541 1.42374023 -62.4029541 1.08374023 C-54.91757925 0.9521246 -47.43218512 0.82165561 -39.9467659 0.69258881 C-36.4697498 0.63260189 -32.99274105 0.5722427 -29.51574707 0.51098633 C-25.50421061 0.44032984 -21.49264636 0.37137605 -17.4810791 0.30249023 C-16.25246155 0.28061646 -15.02384399 0.25874268 -13.75799561 0.23620605 C-11.42214807 0.19658502 -9.08622528 0.1611219 -6.75024414 0.13037109 C-4.49996149 0.09902257 -2.2498199 0.05536379 0 0 Z " transform="translate(407.4029541015625,528.916259765625)" style="fill: #F1D8D4;"/><path d="M0 0 C0.66 0 1.32 0 2 0 C2 11.22 2 22.44 2 34 C5.96 34 9.92 34 14 34 C14 34.33 14 34.66 14 35 C11.85423363 35.02685938 9.70837355 35.04633088 7.5625 35.0625 C6.36753906 35.07410156 5.17257812 35.08570313 3.94140625 35.09765625 C1 35 1 35 0 34 C-1.16841338 26.57941435 -0.93818451 19.42096276 -0.5625 11.9375 C-0.51029297 10.78572266 -0.45808594 9.63394531 -0.40429688 8.44726562 C-0.27576087 5.63115865 -0.1408555 2.81551308 0 0 Z " transform="translate(394,266)" style="fill: #C99593;"/><path d="M0 0 C0.33 0 0.66 0 1 0 C1.20496094 1.25296875 1.40992188 2.5059375 1.62109375 3.796875 C1.89314274 5.44793091 2.16528293 7.09897179 2.4375 8.75 C2.57220703 9.575 2.70691406 10.4 2.84570312 11.25 C2.97783203 12.04921875 3.10996094 12.8484375 3.24609375 13.671875 C3.36654053 14.4050293 3.4869873 15.13818359 3.61108398 15.89355469 C3.99194844 17.9563912 4.48729948 19.96667634 5 22 C6.75456554 34.86681394 6.09423569 48.05201652 6 61 C5.67 61 5.34 61 5 61 C4.92483154 59.47246094 4.92483154 59.47246094 4.84814453 57.9140625 C4.65855061 54.10421953 4.45847514 50.29498448 4.25537109 46.48583984 C4.16921584 44.84308176 4.08583211 43.20017573 4.00537109 41.55712891 C3.88863364 39.18346733 3.76164727 36.81053215 3.6328125 34.4375 C3.59938751 33.71320801 3.56596252 32.98891602 3.53152466 32.24267578 C3.24823362 27.27059986 2.29078109 22.81024897 1 18 C0.76261568 16.04708567 0.56817757 14.08794398 0.4375 12.125 C0.24027636 8.42054249 0.24027636 8.42054249 -1 5 C-0.72057545 3.32345271 -0.39171753 1.65391846 0 0 Z " transform="translate(739,469)" style="fill: #9B8F9A;"/><path d="M0 0 C-0.5949173 13.1774182 -4.92385194 23.96836468 -12 35 C-13.15957207 31.52128379 -12.77456651 30.65780355 -11.5625 27.3125 C-11.13130859 26.10013672 -11.13130859 26.10013672 -10.69140625 24.86328125 C-10.46324219 24.24839844 -10.23507812 23.63351562 -10 23 C-9.34 23 -8.68 23 -8 23 C-7.896875 22.34 -7.79375 21.68 -7.6875 21 C-7.13218398 18.57680281 -6.47042562 16.54274145 -5.5625 14.25 C-4.09370506 10.48845198 -3.20362431 6.74309627 -2.4296875 2.78515625 C-1.75929978 0 -1.75929978 0 0 0 Z " transform="translate(649,538)" style="fill: #E4DEE6;"/><path d="M0 0 C6.51445205 -0.0505939 13.02885368 -0.08568856 19.54345703 -0.10986328 C21.76092421 -0.11993825 23.97837805 -0.13359859 26.19580078 -0.15087891 C29.37796312 -0.17506163 32.55995024 -0.18646797 35.7421875 -0.1953125 C37.23599442 -0.21079636 37.23599442 -0.21079636 38.75997925 -0.22659302 C40.14118454 -0.22681961 40.14118454 -0.22681961 41.55029297 -0.22705078 C42.3630368 -0.231492 43.17578064 -0.23593323 44.01315308 -0.24050903 C46 0 46 0 48 2 C45.92446352 2.5534764 44.15634036 3 42 3 C42 2.34 42 1.68 42 1 C41.30261719 1.0721875 40.60523438 1.144375 39.88671875 1.21875 C26.94668946 2.35633499 13.97802253 2.09127586 1 2 C0.67 1.34 0.34 0.68 0 0 Z " transform="translate(504,300)" style="fill: #E8CAC4;"/><path d="M0 0 C1 2 1 2 0.3125 4.5 C-1.20289002 7.38645719 -2.08343377 7.76266887 -5 9 C-5.433125 9.45375 -5.86625 9.9075 -6.3125 10.375 C-9.09944543 13.05872523 -13.06570625 16 -17 16 C-16.64281443 13.3153472 -16.31017444 12.25426317 -14.1796875 10.5078125 C-13.41914062 10.05148437 -12.65859375 9.59515625 -11.875 9.125 C-7.5386376 6.4052335 -3.81443865 3.4086473 0 0 Z " transform="translate(590,569)" style="fill: #DED9DE;"/><path d="M0 0 C0.33 0 0.66 0 1 0 C1 10.03035476 -3.31685279 17.40178439 -8 26 C-8.99 26 -9.98 26 -11 26 C-10.72027344 25.46117187 -10.44054687 24.92234375 -10.15234375 24.3671875 C-8.83554782 21.66217619 -7.69993819 18.91012902 -6.5625 16.125 C-4.85702218 11.98959361 -3.00042543 8.00085085 -1 4 C-0.31363375 1.76474965 -0.31363375 1.76474965 0 0 Z " transform="translate(486,577)" style="fill: #E9DEDE;"/><path d="M0 0 C8.58 0 17.16 0 26 0 C19.39622642 3.30188679 19.39622642 3.30188679 15.6875 2.5 C12.27029553 1.86424103 9.40043405 2.3999234 6 3 C6.99 4.65 7.98 6.3 9 8 C8.01 8.495 8.01 8.495 7 9 C5.83037314 7.69013727 4.66437056 6.3770374 3.5 5.0625 C2.52546875 3.96615234 2.52546875 3.96615234 1.53125 2.84765625 C0 1 0 1 0 0 Z " transform="translate(470,404)" style="fill: #E6D3C6;"/><path d="M0 0 C4.02814417 2.2943233 7.67049879 4.95971546 11.3125 7.8125 C12.45804402 8.70219555 13.60387708 9.59151907 14.75 10.48046875 C15.30300781 10.91020996 15.85601562 11.33995117 16.42578125 11.78271484 C19.58780893 14.22779394 22.79489018 16.61187896 26 19 C25.01 19.33 24.02 19.66 23 20 C21.24609375 19.00390625 21.24609375 19.00390625 19.4375 17.5625 C17.01243083 15.47634023 17.01243083 15.47634023 14 15 C11.375 12.625 11.375 12.625 9 10 C9 9.34 9 8.68 9 8 C8.13375 7.566875 8.13375 7.566875 7.25 7.125 C6.5075 6.75375 5.765 6.3825 5 6 C4.278125 5.71125 3.55625 5.4225 2.8125 5.125 C1 4 1 4 0.25 1.875 C0.1675 1.25625 0.085 0.6375 0 0 Z " transform="translate(332,322)" style="fill: #300F12;"/><path d="M0 0 C0.33 0 0.66 0 1 0 C1.06058594 1.15757812 1.12117187 2.31515625 1.18359375 3.5078125 C1.26805502 5.04688457 1.35270018 6.58594655 1.4375 8.125 C1.47681641 8.88554688 1.51613281 9.64609375 1.55664062 10.4296875 C1.74573748 13.80433913 2.00596966 17.03457595 2.58203125 20.37109375 C3.4453247 25.8009675 0.15471091 31.10292975 -2 36 C-3.09909805 32.65626509 -2.85024915 30.41761241 -2.125 27 C-0.48311926 18.08059382 -0.33957279 9.04335948 0 0 Z " transform="translate(652,508)" style="fill: #201D33;"/><path d="M0 0 C7.63403577 4.19540053 13.31757145 11.15482613 17 19 C16.67 19.66 16.34 20.32 16 21 C12.99203895 18.99469263 11.27992362 17.41312965 10 14 C10 13.01 10 12.02 10 11 C9.34 11 8.68 11 8 11 C6.4921875 9.5390625 6.4921875 9.5390625 4.875 7.625 C4.06675781 6.68527344 4.06675781 6.68527344 3.2421875 5.7265625 C2 4 2 4 2 2 C1.34 2 0.68 2 0 2 C0 1.34 0 0.68 0 0 Z " transform="translate(453,417)" style="fill: #CAB6B7;"/><path d="M0 0 C0.99 0 1.98 0 3 0 C1.72119265 4.53214624 0.05105918 7.6214328 -2.9375 11.25 C-3.62714844 12.10078125 -4.31679688 12.9515625 -5.02734375 13.828125 C-7 16 -7 16 -10 18 C-10.66 17.34 -11.32 16.68 -12 16 C-10.68 15.67 -9.36 15.34 -8 15 C-7.90460938 14.45859375 -7.80921875 13.9171875 -7.7109375 13.359375 C-6.7933465 10.31418289 -5.31303934 7.94231591 -3.625 5.25 C-3.01914062 4.26515625 -2.41328125 3.2803125 -1.7890625 2.265625 C-1.19867188 1.51796875 -0.60828125 0.7703125 0 0 Z " transform="translate(466,484)" style="fill: #E4CFD0;"/><path d="M0 0 C0.33 0 0.66 0 1 0 C1 1.65 1 3.3 1 5 C13.54 5 26.08 5 39 5 C39 5.33 39 5.66 39 6 C26.46 6 13.92 6 1 6 C0.34 7.32 -0.32 8.64 -1 10 C-2.15837626 5.94568308 -1.83691257 3.78187881 0 0 Z " transform="translate(507,587)" style="fill: #EDE2E7;"/><path d="M0 0 C0.66 0.66 1.32 1.32 2 2 C1.74427244 5.83591337 -0.34931878 7.42964246 -3 10 C-3.28875 10.70125 -3.5775 11.4025 -3.875 12.125 C-5.58141089 14.96901815 -7.90675716 15.19306709 -11 16 C-8.81117576 12.22306984 -6.3971069 8.70426021 -3.8125 5.1875 C-3.09707031 4.21167969 -2.38164063 3.23585938 -1.64453125 2.23046875 C-1.10183594 1.49441406 -0.55914063 0.75835938 0 0 Z " transform="translate(635,576)" style="fill: #21182E;"/><path d="M0 0 C2.0625 0.4375 2.0625 0.4375 4 1 C-0.34529148 7.5264574 -0.34529148 7.5264574 -4.40234375 8.6875 C-6.6188807 8.91160484 -8.77321644 9.03463886 -11 9 C-11.33 8.34 -11.66 7.68 -12 7 C-11.21753906 6.57847656 -10.43507813 6.15695312 -9.62890625 5.72265625 C-8.61699219 5.17480469 -7.60507812 4.62695312 -6.5625 4.0625 C-5.55316406 3.51722656 -4.54382813 2.97195313 -3.50390625 2.41015625 C-1.13329507 1.22300532 -1.13329507 1.22300532 0 0 Z " transform="translate(439,583)" style="fill: #DECDD0;"/><path d="M0 0 C2.64 0.33 5.28 0.66 8 1 C8 1.66 8 2.32 8 3 C10.31 3.33 12.62 3.66 15 4 C15.66 5.65 16.32 7.3 17 9 C16.01 9.495 16.01 9.495 15 10 C12.5390625 8.85546875 12.5390625 8.85546875 9.625 7.1875 C6.44611179 5.3838451 3.2882368 3.59736622 0 2 C0 1.34 0 0.68 0 0 Z " transform="translate(566,446)" style="fill: #DECAC8;"/><path d="M0 0 C-1.0625 1.48046875 -1.0625 1.48046875 -3 3 C-6.25 3.36328125 -6.25 3.36328125 -10 3.3125 C-11.2375 3.30863281 -12.475 3.30476562 -13.75 3.30078125 C-17 3 -17 3 -20 1 C-6.3667426 -1.48063781 -6.3667426 -1.48063781 0 0 Z " transform="translate(559,700)" style="fill: #C7C2CA;"/><path d="M0 0 C2.74733115 3.16999748 5.1069518 6.54078295 7.375 10.0625 C7.91898438 10.89910156 8.46296875 11.73570312 9.0234375 12.59765625 C10 15 10 15 9.1640625 17.30859375 C8.77992188 17.86675781 8.39578125 18.42492187 8 19 C8 17.68 8 16.36 8 15 C7.34 15 6.68 15 6 15 C2.58954699 12.47923038 1.4064653 8.88452322 0 5 C-0.1875 2.0625 -0.1875 2.0625 0 0 Z " transform="translate(708,395)" style="fill: #CEC5C9;"/><path d="M0 0 C0.99 0.33 1.98 0.66 3 1 C1.59064576 3.42119831 0.17293887 5.83680273 -1.25 8.25 C-1.64574219 8.93191406 -2.04148437 9.61382813 -2.44921875 10.31640625 C-4.63847315 14.01301614 -6.75536165 17.11256954 -10 20 C-10.33 19.01 -10.66 18.02 -11 17 C-10.401875 16.46375 -9.80375 15.9275 -9.1875 15.375 C-6.75084834 12.72949249 -5.52867823 10.24844124 -4 7 C-2.69824478 4.64737329 -1.3491081 2.32604846 0 0 Z " transform="translate(714,625)" style="fill: #CEC1C3;"/><path d="M0 0 C-0.33 0.99 -0.66 1.98 -1 3 C-3.6171875 4.16796875 -3.6171875 4.16796875 -6.875 5.1875 C-7.94492187 5.53167969 -9.01484375 5.87585938 -10.1171875 6.23046875 C-13 7 -13 7 -16 7 C-15.375 5.14453125 -15.375 5.14453125 -14 3 C-11.25 1.69921875 -11.25 1.69921875 -8 0.6875 C-6.9275 0.34074219 -5.855 -0.00601563 -4.75 -0.36328125 C-2 -1 -2 -1 0 0 Z " transform="translate(595,689)" style="fill: #C3BCC5;"/><path d="M0 0 C2.63036363 4.73465454 3.12761416 9.1570653 3.09765625 14.51953125 C3.09282227 16.0519043 3.09282227 16.0519043 3.08789062 17.61523438 C3.07951172 18.67033203 3.07113281 19.72542969 3.0625 20.8125 C3.05798828 21.88693359 3.05347656 22.96136719 3.04882812 24.06835938 C3.03707729 26.71229683 3.02064787 29.35611952 3 32 C2.01 32.495 2.01 32.495 1 33 C-0.19388403 10.40510967 -0.19388403 10.40510967 0 0 Z " transform="translate(708,495)" style="fill: #E1D4D1;"/><path d="M0 0 C1.32 0.33 2.64 0.66 4 1 C3.34 1.66 2.68 2.32 2 3 C1.75444642 5.88303788 1.75444642 5.88303788 1.875 9.25 C1.89046875 10.4978125 1.9059375 11.745625 1.921875 13.03125 C1.94765625 14.3409375 1.9734375 15.650625 2 17 C2.05084978 19.58316889 2.0929735 22.16652917 2.125 24.75 C2.14820313 25.89984375 2.17140625 27.0496875 2.1953125 28.234375 C2 31 2 31 0 33 C0 22.11 0 11.22 0 0 Z " transform="translate(396,336)" style="fill: #210913;"/><path d="M0 0 C4.37899007 0.5891018 8.11407305 1.67128531 12.1875 3.375 C13.21230469 3.79523438 14.23710937 4.21546875 15.29296875 4.6484375 C17.75874033 5.87954423 19.23358047 6.92400179 21 9 C13.63785876 7.7007986 6.89069245 4.80530167 0 2 C0 1.34 0 0.68 0 0 Z " transform="translate(428,405)" style="fill: #DABEC4;"/><path d="M0 0 C-1.08000025 3.24000075 -1.49783862 3.6336358 -4.16015625 5.48046875 C-4.78857422 5.92197266 -5.41699219 6.36347656 -6.06445312 6.81835938 C-7.05348633 7.49608398 -7.05348633 7.49608398 -8.0625 8.1875 C-8.72572266 8.65091797 -9.38894531 9.11433594 -10.07226562 9.59179688 C-11.71007505 10.73472863 -13.35442897 11.8682718 -15 13 C-15.33 12.01 -15.66 11.02 -16 10 C-10.25 6 -10.25 6 -8 6 C-8 5.01 -8 4.02 -8 3 C-2.25 0 -2.25 0 0 0 Z " transform="translate(663,688)" style="fill: #D1C7C8;"/><path d="M0 0 C1.32 0 2.64 0 4 0 C2.63088196 3.1489715 1.1247864 5.0478487 -1.5 7.25 C-2.41265625 8.03117188 -2.41265625 8.03117188 -3.34375 8.828125 C-5 10 -5 10 -7 10 C-6.67 8.68 -6.34 7.36 -6 6 C-5.34 6 -4.68 6 -4 6 C-3.67 5.01 -3.34 4.02 -3 3 C-2.34 3 -1.68 3 -1 3 C-0.67 2.01 -0.34 1.02 0 0 Z " transform="translate(612,598)" style="fill: #E2DAE2;"/><path d="M0 0 C0.33 0 0.66 0 1 0 C1.3125 3.25 1.3125 3.25 1 7 C-1.375 9.1875 -1.375 9.1875 -4 11 C-5.31165257 13.11660427 -5.31165257 13.11660427 -6 15 C-6.66 13.68 -7.32 12.36 -8 11 C-7.38511719 10.31164062 -7.38511719 10.31164062 -6.7578125 9.609375 C-6.21898437 8.99578125 -5.68015625 8.3821875 -5.125 7.75 C-4.59132813 7.14671875 -4.05765625 6.5434375 -3.5078125 5.921875 C-2.0202513 4.02581254 -0.99677564 2.18709995 0 0 Z " transform="translate(486,494)" style="fill: #D1C2C8;"/><path d="M0 0 C4.59808129 0.53894425 7.86784369 1.76571528 11.875 4.0625 C12.84179688 4.61035156 13.80859375 5.15820312 14.8046875 5.72265625 C15.89136719 6.35494141 15.89136719 6.35494141 17 7 C17 7.66 17 8.32 17 9 C12.96553471 7.41066519 8.98542574 5.7080396 5 4 C3.3357865 3.32723284 1.67013418 2.65793165 0 2 C0 1.34 0 0.68 0 0 Z " transform="translate(609,315)" style="fill: #E4D3D7;"/><path d="M0 0 C2.067714 3.33303152 2.10526716 5.20908609 1.25 9 C1.06953125 9.845625 0.8890625 10.69125 0.703125 11.5625 C0.016125 13.94410001 -0.67238543 15.90573476 -2 18 C-2.99 18.33 -3.98 18.66 -5 19 C-4.80664062 18.38253906 -4.61328125 17.76507812 -4.4140625 17.12890625 C-2.67003849 11.45651132 -1.21782106 5.80806965 0 0 Z " transform="translate(610,528)" style="fill: #CDC6C7;"/><path d="M0 0 C3.69790046 1.23263349 3.9354846 2.20052451 5.6875 5.5625 C6.12449219 6.38878906 6.56148437 7.21507812 7.01171875 8.06640625 C7.33785156 8.70449219 7.66398438 9.34257812 8 10 C7.01 11.485 7.01 11.485 6 13 C4.80286983 11.21475351 3.61752721 9.4215972 2.4375 7.625 C1.44556641 6.12839844 1.44556641 6.12839844 0.43359375 4.6015625 C-0.03949219 3.74304688 -0.51257813 2.88453125 -1 2 C-0.67 1.34 -0.34 0.68 0 0 Z " transform="translate(705,387)" style="fill: #191426;"/><path d="M0 0 C0.33 0 0.66 0 1 0 C1.08767555 3.37483413 1.14061628 6.74937215 1.1875 10.125 C1.22520508 11.55199219 1.22520508 11.55199219 1.26367188 13.0078125 C1.32056144 18.46921074 1.04470749 22.2531332 -2 27 C-3.11608143 23.39238466 -2.56716095 21.25597634 -1.546875 17.63671875 C-0.35125035 11.87209991 -0.2905274 5.87171167 0 0 Z " transform="translate(489,560)" style="fill: #333145;"/><path d="M0 0 C2.18614424 2.18614424 2.68256535 3.53879949 3.625 6.4375 C3.88539063 7.21996094 4.14578125 8.00242187 4.4140625 8.80859375 C5 11 5 11 5 14 C4.01 14 3.02 14 2 14 C-1.62870159 4.58997722 -1.62870159 4.58997722 0 0 Z " transform="translate(728,433)" style="fill: #C1B1B8;"/><path d="M0 0 C3.7602985 0.58107632 6.53035032 1.65199496 9.8125 3.5625 C10.60269531 4.01753906 11.39289062 4.47257812 12.20703125 4.94140625 C12.79871094 5.29074219 13.39039063 5.64007813 14 6 C14 6.66 14 7.32 14 8 C9.0276578 6.50829734 4.58154261 4.39542583 0 2 C0 1.34 0 0.68 0 0 Z " transform="translate(600,348)" style="fill: #CEB8B5;"/><path d="M0 0 C0 0.66 0 1.32 0 2 C-6.93 5.465 -6.93 5.465 -14 9 C-13.67 8.01 -13.34 7.02 -13 6 C-12.34 6 -11.68 6 -11 6 C-11 5.34 -11 4.68 -11 4 C-9.5437455 3.32880451 -8.08492133 2.66318193 -6.625 2 C-5.81289063 1.62875 -5.00078125 1.2575 -4.1640625 0.875 C-2 0 -2 0 0 0 Z " transform="translate(598,612)" style="fill: #DCD9DD;"/><path d="M0 0 C0.99 0 1.98 0 3 0 C1.27933894 5.44876003 -0.84705349 10.71169451 -3 16 C-3.66 15.34 -4.32 14.68 -5 14 C-4.01 11.03 -3.02 8.06 -2 5 C-1.34 5 -0.68 5 0 5 C0 3.35 0 1.7 0 0 Z " transform="translate(730,590)" style="fill: #BBACB1;"/><path d="M0 0 C-3.02272532 3.25524265 -6.25718301 5.61820737 -10 8 C-10.66 7.67 -11.32 7.34 -12 7 C-10.83745342 3.51236025 -10.02699938 2.93391627 -7 1 C-2.3902439 -1.19512195 -2.3902439 -1.19512195 0 0 Z " transform="translate(348,704)" style="fill: #E4D4D0;"/><path d="M0 0 C0 2.97 0 5.94 0 9 C-0.33 7.68 -0.66 6.36 -1 5 C-4.465 6.485 -4.465 6.485 -8 8 C-8 7.01 -8 6.02 -8 5 C-6.50390625 3.61328125 -6.50390625 3.61328125 -4.5625 2.3125 C-3.92441406 1.87550781 -3.28632813 1.43851562 -2.62890625 0.98828125 C-1 0 -1 0 0 0 Z " transform="translate(394,267)" style="fill: #D49A8B;"/><path d="M0 0 C0.66 0.99 1.32 1.98 2 3 C1.360625 3.433125 0.72125 3.86625 0.0625 4.3125 C-2.26746003 5.91239177 -2.26746003 5.91239177 -3 9 C-4.95597184 10.39712274 -6.95436401 11.73779907 -9 13 C-9.66 12.67 -10.32 12.34 -11 12 C-10.37351562 11.38511719 -9.74703125 10.77023437 -9.1015625 10.13671875 C-8.28429687 9.32847656 -7.46703125 8.52023437 -6.625 7.6875 C-5.40683594 6.48673828 -5.40683594 6.48673828 -4.1640625 5.26171875 C-1.87395158 2.99990063 -1.87395158 2.99990063 0 0 Z " transform="translate(494,613)" style="fill: #CFC1CE;"/><path d="M0 0 C1.32 0.33 2.64 0.66 4 1 C0.7 3.64 -2.6 6.28 -6 9 C-6.66 8.67 -7.32 8.34 -8 8 C-6.85492353 5.70984705 -5.58548851 4.52353461 -3.6875 2.8125 C-3.09324219 2.26207031 -2.49898437 1.71164062 -1.88671875 1.14453125 C-1.26410156 0.76683594 -0.64148438 0.38914062 0 0 Z " transform="translate(585,570)" style="fill: #1E1B2D;"/><path d="M0 0 C0.66 0.66 1.32 1.32 2 2 C1.75 3.75 1.75 3.75 1 6 C0.5978125 7.5778125 0.5978125 7.5778125 0.1875 9.1875 C-1 12 -1 12 -3.125 12.875 C-3.74375 12.91625 -4.3625 12.9575 -5 13 C-3.58192622 8.52761347 -1.88695626 4.28853694 0 0 Z " transform="translate(645,555)" style="fill: #272234;"/><path d="M0 0 C3.58102841 3.38208239 6.56773474 6.69676146 9 11 C8.67 11.99 8.34 12.98 8 14 C6.5 12.6875 6.5 12.6875 5 11 C5 10.01 5 9.02 5 8 C4.01 7.67 3.02 7.34 2 7 C0.8125 3.4375 0.8125 3.4375 0 0 Z " transform="translate(626,444)" style="fill: #D3CAD4;"/><path d="M0 0 C9.59453303 2.70615034 9.59453303 2.70615034 13 7 C12.01 7.495 12.01 7.495 11 8 C11 7.34 11 6.68 11 6 C8.36 5.67 5.72 5.34 3 5 C3 4.01 3 3.02 3 2 C1.68 1.67 0.36 1.34 -1 1 C-0.67 0.67 -0.34 0.34 0 0 Z " transform="translate(577,410)" style="fill: #E4D8DD;"/><path d="M0 0 C0 0.66 0 1.32 0 2 C1.32 2.66 2.64 3.32 4 4 C0.8568669 5.57156655 -1.365464 4.11705576 -4.625 3.0625 C-6.40777344 2.49208984 -6.40777344 2.49208984 -8.2265625 1.91015625 C-9.14179687 1.60980469 -10.05703125 1.30945313 -11 1 C-11 0.67 -11 0.34 -11 0 C-3.57142857 -1.28571429 -3.57142857 -1.28571429 0 0 Z " transform="translate(582,339)" style="fill: #CCBBB5;"/><path d="M0 0 C-0.96355353 11.52164009 -0.96355353 11.52164009 -2 17 C-4.54768259 13.17847611 -3.94985534 11.81141624 -3.1875 7.375 C-2.99542969 6.20710937 -2.80335938 5.03921875 -2.60546875 3.8359375 C-1.78650138 0 -1.78650138 0 0 0 Z " transform="translate(742,548)" style="fill: #C6B8BB;"/><path d="M0 0 C0 0.66 0 1.32 0 2 C-5.94 1.34 -11.88 0.68 -18 0 C-18 -0.33 -18 -0.66 -18 -1 C-12.38954024 -2.3287931 -5.28938497 -2.64469248 0 0 Z " transform="translate(564,336)" style="fill: #CDB9B1;"/><path d="M0 0 C0.99 0 1.98 0 3 0 C1.84414715 3.91211733 0.64465038 6.8745041 -2 10 C-2.66 8.35 -3.32 6.7 -4 5 C-3.525625 4.54625 -3.05125 4.0925 -2.5625 3.625 C-0.90972192 2.06741796 -0.90972192 2.06741796 0 0 Z " transform="translate(720,613)" style="fill: #CDBFC2;"/><path d="M0 0 C0.66 0.33 1.32 0.66 2 1 C1.375 2.875 1.375 2.875 0 5 C-3.125 6.25 -3.125 6.25 -6 7 C-6 6.34 -6 5.68 -6 5 C-6.66 4.67 -7.32 4.34 -8 4 C-6.71349294 3.30289269 -5.42059335 2.61757124 -4.125 1.9375 C-3.40570312 1.55464844 -2.68640625 1.17179688 -1.9453125 0.77734375 C-1.30335938 0.52082031 -0.66140625 0.26429688 0 0 Z " transform="translate(572,582)" style="fill: #C9C8CC;"/><path d="M0 0 C6.70459519 5.0940919 6.70459519 5.0940919 7.9375 8.875 C7.958125 9.57625 7.97875 10.2775 8 11 C1.29540481 5.9059081 1.29540481 5.9059081 0.0625 2.125 C0.041875 1.42375 0.02125 0.7225 0 0 Z " transform="translate(679,360)" style="fill: #D7CCD3;"/><path d="M0 0 C2.64 0 5.28 0 8 0 C8 1.98 8 3.96 8 6 C4.08597051 4.73058503 2.20927127 3.48832306 0 0 Z " transform="translate(386,362)" style="fill: #D4ABA1;"/><path d="M0 0 C0.61488281 0.18949219 1.22976563 0.37898437 1.86328125 0.57421875 C0.74358265 1.58015118 -0.38265995 2.57880365 -1.51171875 3.57421875 C-2.45144531 4.40953125 -2.45144531 4.40953125 -3.41015625 5.26171875 C-5.13671875 6.57421875 -5.13671875 6.57421875 -7.13671875 6.57421875 C-6.76164493 3.85493358 -6.29453214 2.73203214 -4.32421875 0.76171875 C-2.13671875 -0.42578125 -2.13671875 -0.42578125 0 0 Z " transform="translate(389.13671875,671.42578125)" style="fill: #DECFCD;"/><path d="M0 0 C-0.33 0.66 -0.66 1.32 -1 2 C1.475 2.99 1.475 2.99 4 4 C3.67 4.99 3.34 5.98 3 7 C1.66144944 6.21718695 0.32926356 5.42348123 -1 4.625 C-1.7425 4.18414062 -2.485 3.74328125 -3.25 3.2890625 C-3.8275 2.86367188 -4.405 2.43828125 -5 2 C-5 1.34 -5 0.68 -5 0 C-2 -1 -2 -1 0 0 Z " transform="translate(331,316)" style="fill: #C7847E;"/><path d="M0 0 C0.99 0.33 1.98 0.66 3 1 C1.85793642 2.50287218 0.71125043 4.00223284 -0.4375 5.5 C-1.39462891 6.75296875 -1.39462891 6.75296875 -2.37109375 8.03125 C-2.90863281 8.6809375 -3.44617188 9.330625 -4 10 C-4.33 10 -4.66 10 -5 10 C-5.36625971 5.48279689 -5.36625971 5.48279689 -3.625 3.1875 C-2 2 -2 2 0 2 C0 1.34 0 0.68 0 0 Z " transform="translate(701,646)" style="fill: #CCBFC6;"/><path d="M0 0 C0.99 0.33 1.98 0.66 3 1 C-3.15034169 8.48291572 -3.15034169 8.48291572 -7 11 C-6.52648061 6.73832553 -3.99978097 4.84979192 -1 2 C-0.67 1.34 -0.34 0.68 0 0 Z " transform="translate(656,642)" style="fill: #110D21;"/><path d="M0 0 C0.66 0 1.32 0 2 0 C2.69710731 1.28650706 3.38242876 2.57940665 4.0625 3.875 C4.44535156 4.59429687 4.82820312 5.31359375 5.22265625 6.0546875 C5.47917969 6.69664062 5.73570312 7.33859375 6 8 C5.67 8.66 5.34 9.32 5 10 C2 9 2 9 0.8125 6.6875 C0 4 0 4 0 0 Z " transform="translate(639,466)" style="fill: #CCC8D5;"/><path d="M0 0 C0.66 0 1.32 0 2 0 C1.44449305 3.59905908 0.25112752 4.99909799 -2.5625 7.25 C-3.20316406 7.77078125 -3.84382813 8.2915625 -4.50390625 8.828125 C-4.99761719 9.21484375 -5.49132812 9.6015625 -6 10 C-6 9.01 -6 8.02 -6 7 C-5.34 7 -4.68 7 -4 7 C-4 6.01 -4 5.02 -4 4 C-3.34 4 -2.68 4 -2 4 C-2 3.34 -2 2.68 -2 2 C-1.34 2 -0.68 2 0 2 C0 1.34 0 0.68 0 0 Z " transform="translate(474,603)" style="fill: #D9CED1;"/><path d="M0 0 C0.66 0 1.32 0 2 0 C2 0.99 2 1.98 2 3 C2.66 3 3.32 3 4 3 C5.61949011 5.57213134 6.04408751 6.67669159 5.625 9.75 C5.41875 10.4925 5.2125 11.235 5 12 C3.20931427 9.3139714 2.33944209 7.3373411 1.375 4.3125 C1.11460937 3.50425781 0.85421875 2.69601562 0.5859375 1.86328125 C0.39257812 1.24839844 0.19921875 0.63351562 0 0 Z " transform="translate(642,468)" style="fill: #141327;"/><path d="M0 0 C0.66 0.33 1.32 0.66 2 1 C-3.30311615 6.74504249 -3.30311615 6.74504249 -7 7 C-7.66 6.67 -8.32 6.34 -9 6 C-6.03 4.02 -3.06 2.04 0 0 Z " transform="translate(626,671)" style="fill: #D0C9D6;"/><path d="M0 0 C0.66 0.33 1.32 0.66 2 1 C-0.97 4.3 -3.94 7.6 -7 11 C-7.33 10.01 -7.66 9.02 -8 8 C-7.01 7.67 -6.02 7.34 -5 7 C-3.79117904 4.99983534 -3.79117904 4.99983534 -3 3 C-2.34 3 -1.68 3 -1 3 C-0.67 2.01 -0.34 1.02 0 0 Z " transform="translate(685,666)" style="fill: #C8BEC2;"/><path d="M0 0 C0.75 1.6875 0.75 1.6875 1 4 C-1.9393797 8.68123434 -1.9393797 8.68123434 -5.14453125 9.64453125 C-5.75683594 9.76183594 -6.36914062 9.87914062 -7 10 C-6.02223933 8.51990357 -5.0427506 7.04094856 -4.0625 5.5625 C-3.51722656 4.73878906 -2.97195313 3.91507813 -2.41015625 3.06640625 C-1 1 -1 1 0 0 Z " transform="translate(598,559)" style="fill: #D6D0D6;"/><path d="M0 0 C0.99 0.99 1.98 1.98 3 3 C2.01 5.97 1.02 8.94 0 12 C-0.66 11.67 -1.32 11.34 -2 11 C-1 3.57142857 -1 3.57142857 0 0 Z " transform="translate(648,544)" style="fill: #302A3F;"/><path d="M0 0 C0.33 0 0.66 0 1 0 C1.22134176 2.12368444 1.42670007 4.24904024 1.625 6.375 C1.74101562 7.55835938 1.85703125 8.74171875 1.9765625 9.9609375 C1.98429687 10.96382813 1.99203125 11.96671875 2 13 C1.34 13.66 0.68 14.32 0 15 C-1.5111995 9.96266834 -0.64599773 5.11828973 0 0 Z " transform="translate(472,458)" style="fill: #E7D1CA;"/><path d="M0 0 C0.99 0.495 0.99 0.495 2 1 C2 1.66 2 2.32 2 3 C2.99 3.33 3.98 3.66 5 4 C6.75 6.375 6.75 6.375 8 9 C7.67 9.99 7.34 10.98 7 12 C5.82455195 10.56967163 4.65989738 9.13046758 3.5 7.6875 C2.8503125 6.88699219 2.200625 6.08648437 1.53125 5.26171875 C0 3 0 3 0 0 Z " transform="translate(668,399)" style="fill: #E3D5D3;"/><path d="M0 0 C3.98175544 2.10148204 6.35039045 4.36905358 9 8 C6 8 6 8 3.8125 6.125 C2 4 2 4 2 2 C1.34 2 0.68 2 0 2 C0 1.34 0 0.68 0 0 Z " transform="translate(453,417)" style="fill: #D7BFC0;"/><path d="M0 0 C2.66735273 2.48952921 4.55746343 4.63408134 6 8 C3.03 7.505 3.03 7.505 0 7 C0 4.69 0 2.38 0 0 Z " transform="translate(701,385)" style="fill: #CCC1C5;"/><path d="M0 0 C3.99500618 1.3697164 6.80009492 3.25722422 10 6 C5.44262737 5.56179109 2.42346555 5.14958831 -1 2 C-0.67 1.34 -0.34 0.68 0 0 Z " transform="translate(641,331)" style="fill: #DDCECF;"/><path d="M0 0 C-0.33 0.99 -0.66 1.98 -1 3 C-4.375 3.625 -4.375 3.625 -8 4 C-8.66 3.34 -9.32 2.68 -10 2 C-8.71211992 1.46987262 -7.41953322 0.9511671 -6.125 0.4375 C-5.40570312 0.14746094 -4.68640625 -0.14257812 -3.9453125 -0.44140625 C-2 -1 -2 -1 0 0 Z " transform="translate(595,689)" style="fill: #B6ADBD;"/><path d="M0 0 C-1.73373542 2.09873235 -2.89974084 2.96490929 -5.5 3.875 C-8 4 -8 4 -9.65625 2.5078125 C-10.0996875 2.01023437 -10.543125 1.51265625 -11 1 C-9.5437328 0.63743142 -8.08488815 0.28520207 -6.625 -0.0625 C-5.40683594 -0.35833984 -5.40683594 -0.35833984 -4.1640625 -0.66015625 C-2 -1 -2 -1 0 0 Z " transform="translate(445,627)" style="fill: #221829;"/><path d="M0 0 C0.66 0 1.32 0 2 0 C0.4169423 4.2742558 -2.50568404 6.26531794 -6 9 C-6.33 8.01 -6.66 7.02 -7 6 C-2.25 2 -2.25 2 0 2 C0 1.34 0 0.68 0 0 Z " transform="translate(485,620)" style="fill: #1E1126;"/><path d="M0 0 C0.33 0.99 0.66 1.98 1 3 C1.66 3 2.32 3 3 3 C2.37240135 5.92879371 1.41377341 8.36095629 0 11 C-0.33 11 -0.66 11 -1 11 C-0.67 7.37 -0.34 3.74 0 0 Z " transform="translate(741,554)" style="fill: #2B2332;"/><path d="M0 0 C0.66 1.65 1.32 3.3 2 5 C1.01 5.495 1.01 5.495 0 6 C-2.625 4.6875 -2.625 4.6875 -5 3 C-5 2.34 -5 1.68 -5 1 C-3 0 -3 0 0 0 Z " transform="translate(581,450)" style="fill: #E4D2D6;"/><path d="M0 0 C-2.90092502 1.93395001 -3.89674737 2.30131941 -7.1875 2.625 C-8.445625 2.74875 -9.70375 2.8725 -11 3 C-11.33 2.34 -11.66 1.68 -12 1 C-10.56496445 0.63597631 -9.12683494 0.28413409 -7.6875 -0.0625 C-6.88699219 -0.25972656 -6.08648438 -0.45695313 -5.26171875 -0.66015625 C-3 -1 -3 -1 0 0 Z " transform="translate(574,624)" style="fill: #EAE3E5;"/><path d="M0 0 C0.99 0.33 1.98 0.66 3 1 C1.515 4.465 1.515 4.465 0 8 C-0.66 7.34 -1.32 6.68 -2 6 C-1.44444444 1.44444444 -1.44444444 1.44444444 0 0 Z " transform="translate(692,595)" style="fill: #D6D0D6;"/><path d="M0 0 C3.73151108 1.24383703 4.74534148 2.84347807 7 6 C7.33 6.99 7.66 7.98 8 9 C7.01 9 6.02 9 5 9 C3.61328125 7.5390625 3.61328125 7.5390625 2.3125 5.625 C1.65701172 4.68527344 1.65701172 4.68527344 0.98828125 3.7265625 C0 2 0 2 0 0 Z " transform="translate(439,540)" style="fill: #E5CECA;"/><path d="M0 0 C3.36720387 1.39332574 4.9859524 2.9789286 7 6 C4 6 4 6 1.3125 3.5 C0.549375 2.675 -0.21375 1.85 -1 1 C-0.67 0.67 -0.34 0.34 0 0 Z " transform="translate(452,413)" style="fill: #281E2E;"/><path d="M0 0 C0.33 0 0.66 0 1 0 C1.0810206 2.10353495 1.13919907 4.20795952 1.1875 6.3125 C1.22230469 7.48425781 1.25710938 8.65601563 1.29296875 9.86328125 C1 13 1 13 -2 16 C-1.34 10.72 -0.68 5.44 0 0 Z " transform="translate(651,528)" style="fill: #403B56;"/><path d="M0 0 C0.33 0.99 0.66 1.98 1 3 C-3.30769231 7.92307692 -3.30769231 7.92307692 -6.8125 8.3125 C-7.534375 8.209375 -8.25625 8.10625 -9 8 C-8.443125 7.608125 -7.88625 7.21625 -7.3125 6.8125 C-4.6564795 4.7307542 -2.35135049 2.41666578 0 0 Z " transform="translate(427,483)" style="fill: #CBB6B6;"/><path d="M0 0 C0.66 0 1.32 0 2 0 C3.75 2.25 3.75 2.25 5 5 C4.1875 7.3125 4.1875 7.3125 3 9 C0 3.375 0 3.375 0 0 Z " transform="translate(718,409)" style="fill: #1B1828;"/><path d="M0 0 C3.37462715 0.54723683 5.08235 1.0549 8 3 C8 3.66 8 4.32 8 5 C4.75791433 4.64950425 3.38472296 4.43778819 1.1875 1.9375 C0.795625 1.298125 0.40375 0.65875 0 0 Z " transform="translate(337,724)" style="fill: #E4D1CC;"/><path d="M0 0 C-4.95 2.475 -4.95 2.475 -10 5 C-9.67 3.68 -9.34 2.36 -9 1 C-5.31975221 -1.08878929 -4.24507101 -1.06126775 0 0 Z " transform="translate(640,706)" style="fill: #CBBEC0;"/><path d="M0 0 C0.66 0.33 1.32 0.66 2 1 C-2.30769231 5.92307692 -2.30769231 5.92307692 -5.8125 6.3125 C-6.8953125 6.1578125 -6.8953125 6.1578125 -8 6 C-5.63404067 3.38499232 -3.13950774 1.61000397 0 0 Z " transform="translate(487,623)" style="fill: #E4D7DC;"/><path d="M0 0 C2.38564077 0.57584432 4.66682784 1.22227595 7 2 C7.33 2.99 7.66 3.98 8 5 C4.33776842 4.50510384 2.33006074 3.94323463 0 1 C0 0.67 0 0.34 0 0 Z " transform="translate(620,358)" style="fill: #E3CECE;"/><path d="M0 0 C-1.4638611 4.39158329 -3.97831338 4.87947433 -8 7 C-8 6.01 -8 5.02 -8 4 C-2.74285714 0 -2.74285714 0 0 0 Z " transform="translate(655,694)" style="fill: #CAC1C3;"/><path d="M0 0 C0.99 0.66 1.98 1.32 3 2 C0.82575883 4.50037734 -0.73045798 5.43628586 -4 6 C-3.67 5.01 -3.34 4.02 -3 3 C-2.34 3 -1.68 3 -1 3 C-0.67 2.01 -0.34 1.02 0 0 Z " transform="translate(582,617)" style="fill: #E9E4E2;"/><path d="M0 0 C1 3 1 3 0.22265625 4.82421875 C-1.38867188 7.41210938 -1.38867188 7.41210938 -3 10 C-4.26339822 6.20980534 -3.49719015 4.62477616 -2 1 C-1.34 0.67 -0.68 0.34 0 0 Z " transform="translate(640,563)" style="fill: #EBE5EE;"/><path d="M0 0 C4.42857143 5.14285714 4.42857143 5.14285714 5 9 C4.01 8.67 3.02 8.34 2 8 C1.67 7.01 1.34 6.02 1 5 C0.34 4.34 -0.32 3.68 -1 3 C-0.67 2.01 -0.34 1.02 0 0 Z " transform="translate(682,422)" style="fill: #332328;"/><path d="M0 0 C3.465 1.98 3.465 1.98 7 4 C7 4.99 7 5.98 7 7 C4.36 5.35 1.72 3.7 -1 2 C-0.67 1.34 -0.34 0.68 0 0 Z " transform="translate(356,338)" style="fill: #CD9491;"/><path d="M0 0 C1.32 0.33 2.64 0.66 4 1 C1.09907498 2.93395001 0.10325263 3.30131941 -3.1875 3.625 C-4.445625 3.74875 -5.70375 3.8725 -7 4 C-6.67 3.01 -6.34 2.02 -6 1 C-3.03 1.495 -3.03 1.495 0 2 C0 1.34 0 0.68 0 0 Z " transform="translate(593,724)" style="fill: #C7B9B8;"/><path d="M0 0 C3.36720387 1.39332574 4.9859524 2.9789286 7 6 C6.34 6.66 5.68 7.32 5 8 C2 4.25 2 4.25 2 2 C1.34 2 0.68 2 0 2 C0 1.34 0 0.68 0 0 Z " transform="translate(619,438)" style="fill: #DED7DB;"/><path d="M0 0 C2.375 0.25 2.375 0.25 5 1 C6.3125 3.0625 6.3125 3.0625 7 5 C4.69 4.34 2.38 3.68 0 3 C0 2.01 0 1.02 0 0 Z " transform="translate(579,408)" style="fill: #231E32;"/><path d="M0 0 C0.66 0.33 1.32 0.66 2 1 C0.625 3 0.625 3 -1 5 C-1.66 5 -2.32 5 -3 5 C-3 4.34 -3 3.68 -3 3 C-3.66 2.67 -4.32 2.34 -5 2 C-2.625 0.9375 -2.625 0.9375 0 0 Z " transform="translate(450,623)" style="fill: #352A3B;"/><path d="M0 0 C2.1519437 3.22791555 2.20086443 4.28400809 2 8 C1.34 8 0.68 8 0 8 C-1.125 2.25 -1.125 2.25 0 0 Z " transform="translate(486,550)" style="fill: #D4CDCC;"/><path d="M0 0 C0.99 0.33 1.98 0.66 3 1 C3 1.66 3 2.32 3 3 C3.66 3.33 4.32 3.66 5 4 C4.67 5.65 4.34 7.3 4 9 C2.00902154 6.01353231 1.05875074 3.40312738 0 0 Z " transform="translate(487,426)" style="fill: #E0CDC3;"/><path d="M0 0 C5.75 0.75 5.75 0.75 8 3 C5.6875 3.625 5.6875 3.625 3 4 C2.01 3.34 1.02 2.68 0 2 C0 1.34 0 0.68 0 0 Z " transform="translate(609,315)" style="fill: #DFCECD;"/></svg>